# Blender 4.4.1
# www.blender.org
mtllib shield.mtl
o 立方体
v -0.214665 0.406302 0.099657
v -0.247747 2.027867 0.099657
v -0.214665 0.406302 -0.099657
v -0.247747 2.027867 -0.099657
v 0.214665 0.406302 0.099657
v 0.247747 2.027867 0.099657
v 0.214665 0.406302 -0.099657
v 0.247747 2.027867 -0.099657
v -0.618730 1.217084 0.099657
v -0.618730 1.217084 -0.099657
v 0.618730 1.217084 -0.099657
v 0.618730 1.217084 0.099657
v -0.550058 0.811693 -0.099657
v 0.550058 0.811693 -0.099657
v 0.550058 0.811693 0.099657
v -0.550058 0.811693 0.099657
v -0.530731 1.622476 0.099657
v -0.530731 1.622476 -0.099657
v 0.530731 1.622476 -0.099657
v 0.530731 1.622476 0.099657
vn -0.8200 0.5724 -0.0000
vn -0.0000 -0.0000 -1.0000
vn 0.8200 0.5724 -0.0000
vn -0.0000 -0.0000 1.0000
vn -0.0000 -1.0000 -0.0000
vn -0.0000 1.0000 -0.0000
vn 0.9860 -0.1670 -0.0000
vn -0.9860 -0.1670 -0.0000
vn -0.7705 -0.6375 -0.0000
vn 0.7705 -0.6375 -0.0000
vn 0.9772 0.2121 -0.0000
vn -0.9772 0.2121 -0.0000
vt 0.625000 0.000000
vt 0.562500 0.250000
vt 0.562500 0.000000
vt 0.625000 0.250000
vt 0.562500 0.500000
vt 0.625000 0.500000
vt 0.562500 0.750000
vt 0.625000 0.750000
vt 0.562500 1.000000
vt 0.375000 0.500000
vt 0.125000 0.750000
vt 0.125000 0.500000
vt 0.875000 0.500000
vt 0.500000 0.750000
vt 0.437500 1.000000
vt 0.437500 0.750000
vt 0.500000 0.500000
vt 0.437500 0.500000
vt 0.500000 0.250000
vt 0.437500 0.250000
vt 0.500000 0.000000
vt 0.437500 0.000000
vt 0.375000 0.250000
vt 0.375000 0.000000
vt 0.375000 0.750000
vt 0.375000 1.000000
vt 0.500000 1.000000
vt 0.625000 1.000000
vt 0.875000 0.750000
s 0
usemtl マテリアル
f 2/1/1 18/2/1 17/3/1
f 4/4/2 19/5/2 18/2/2
f 8/6/3 20/7/3 19/5/3
f 6/8/4 17/9/4 20/7/4
f 7/10/5 1/11/5 3/12/5
f 4/13/6 6/8/6 8/6/6
f 12/14/4 16/15/4 15/16/4
f 11/17/7 15/16/7 14/18/7
f 10/19/2 14/18/2 13/20/2
f 9/21/8 13/20/8 16/22/8
f 16/22/9 3/23/9 1/24/9
f 13/20/2 7/10/2 3/23/2
f 14/18/10 5/25/10 7/10/10
f 15/16/4 1/26/4 5/25/4
f 20/7/4 9/27/4 12/14/4
f 19/5/11 12/14/11 11/17/11
f 18/2/2 11/17/2 10/19/2
f 17/3/12 10/19/12 9/21/12
f 2/1/1 4/4/1 18/2/1
f 4/4/2 8/6/2 19/5/2
f 8/6/3 6/8/3 20/7/3
f 6/8/4 2/28/4 17/9/4
f 7/10/5 5/25/5 1/11/5
f 4/13/6 2/29/6 6/8/6
f 12/14/4 9/27/4 16/15/4
f 11/17/7 12/14/7 15/16/7
f 10/19/2 11/17/2 14/18/2
f 9/21/8 10/19/8 13/20/8
f 16/22/9 13/20/9 3/23/9
f 13/20/2 14/18/2 7/10/2
f 14/18/10 15/16/10 5/25/10
f 15/16/4 16/15/4 1/26/4
f 20/7/4 17/9/4 9/27/4
f 19/5/11 20/7/11 12/14/11
f 18/2/2 19/5/2 11/17/2
f 17/3/12 18/2/12 10/19/12
