# Blender 4.4.1
# www.blender.org
mtllib boss.mtl
o 円柱
v 0.315168 1.045906 0.847066
v 0.317238 1.043605 0.683900
v 0.309132 0.873865 0.849415
v 0.311202 0.871564 0.686249
v 0.291318 0.708436 0.851522
v 0.293388 0.706135 0.688356
v 0.262411 0.555975 0.853305
v 0.264481 0.553675 0.690139
v 0.223522 0.422343 0.854696
v 0.225592 0.420042 0.691530
v 0.176144 0.312673 0.855641
v 0.178214 0.310373 0.692475
v 0.122099 0.231181 0.856105
v 0.124169 0.228881 0.692938
v 0.063464 0.180999 0.856068
v 0.065534 0.178698 0.692902
v 0.002491 0.164055 0.855534
v 0.004561 0.161754 0.692368
v -0.058475 0.180999 0.854521
v -0.056405 0.178698 0.691355
v -0.117092 0.231181 0.853070
v -0.115022 0.228881 0.689904
v -0.171108 0.312673 0.851236
v -0.169038 0.310373 0.688070
v -0.218446 0.422343 0.849089
v -0.216376 0.420042 0.685923
v -0.257288 0.555975 0.846712
v -0.255218 0.553675 0.683546
v -0.286141 0.708436 0.844196
v -0.284071 0.706135 0.681030
v -0.303895 0.873865 0.841638
v -0.301825 0.871564 0.678472
v -0.309870 1.045906 0.839137
v -0.307800 1.043605 0.675970
v -0.303834 1.217947 0.836787
v -0.301764 1.215646 0.673621
v -0.286020 1.383376 0.834681
v -0.283950 1.381075 0.671514
v -0.257113 1.535836 0.832898
v -0.255043 1.533535 0.669731
v -0.218223 1.669469 0.831507
v -0.216153 1.667168 0.668341
v -0.170846 1.779138 0.830561
v -0.168776 1.776838 0.667395
v -0.116801 1.860630 0.830098
v -0.114731 1.858330 0.666932
v -0.058166 1.910813 0.830134
v -0.056096 1.908512 0.666968
v 0.002807 1.927757 0.830669
v 0.004877 1.925457 0.667503
v 0.063773 1.910813 0.831681
v 0.065843 1.908512 0.668515
v 0.122390 1.860630 0.833132
v 0.124460 1.858330 0.669966
v 0.176406 1.779138 0.834967
v 0.178476 1.776838 0.671801
v 0.223745 1.669469 0.837114
v 0.225815 1.667168 0.673947
v 0.262586 1.535836 0.839491
v 0.264656 1.533535 0.676324
v 0.291439 1.383376 0.842007
v 0.293509 1.381075 0.678840
v 0.309193 1.217947 0.844564
v 0.311263 1.215646 0.681398
v -0.970327 0.044755 -1.293404
v 1.029512 0.044755 -1.268033
v -0.970327 2.044755 -1.293404
v -0.995698 0.044755 0.706435
v 1.004141 0.044755 0.731806
v 1.004142 2.044755 0.731806
v 1.029512 2.044755 -1.268033
v -0.995698 2.044755 0.706435
v -1.236694 1.994926 -1.537440
v -0.663246 1.994926 -1.530165
v -1.236694 2.467031 -1.537440
v -1.268170 1.994926 0.943635
v -0.694722 1.994926 0.950910
v -0.694722 2.467031 0.950910
v -0.663246 2.467031 -1.530165
v -1.268169 2.467031 0.943635
v 0.701347 1.994926 -1.512853
v 1.274794 1.994926 -1.505578
v 0.701347 2.467031 -1.512853
v 0.669871 1.994926 0.968222
v 1.243318 1.994926 0.975497
v 1.243318 2.467031 0.975497
v 1.274794 2.467031 -1.505578
v 0.669871 2.467031 0.968222
vn 0.9993 -0.0349 0.0132
vn 0.9942 -0.1069 0.0141
vn 0.9824 -0.1861 0.0151
vn 0.9601 -0.2792 0.0161
vn 0.9179 -0.3964 0.0172
vn 0.8333 -0.5525 0.0184
vn 0.6501 -0.7596 0.0190
vn 0.2676 -0.9634 0.0170
vn -0.2679 -0.9634 0.0102
vn -0.6504 -0.7596 0.0025
vn -0.8335 -0.5525 -0.0028
vn -0.9181 -0.3964 -0.0061
vn -0.9602 -0.2792 -0.0082
vn -0.9825 -0.1861 -0.0098
vn -0.9942 -0.1069 -0.0111
vn -0.9993 -0.0349 -0.0122
vn -0.9993 0.0349 -0.0132
vn -0.9942 0.1069 -0.0141
vn -0.9824 0.1861 -0.0151
vn -0.9601 0.2792 -0.0161
vn -0.9179 0.3964 -0.0172
vn -0.8333 0.5525 -0.0184
vn -0.6501 0.7596 -0.0190
vn -0.2676 0.9634 -0.0170
vn 0.2679 0.9634 -0.0102
vn 0.6504 0.7596 -0.0025
vn 0.8335 0.5525 0.0028
vn 0.9181 0.3964 0.0061
vn 0.9602 0.2792 0.0082
vn 0.9825 0.1861 0.0098
vn 0.0127 -0.0141 -0.9998
vn 0.9942 0.1069 0.0111
vn 0.9993 0.0349 0.0122
vn -0.0127 0.0141 0.9998
vn -0.0000 -1.0000 -0.0000
vn 0.0127 -0.0000 -0.9999
vn -0.9999 -0.0000 -0.0127
vn 0.9999 -0.0000 0.0127
vn -0.0127 -0.0000 0.9999
vn -0.0000 1.0000 -0.0000
vt 0.065332 0.001393
vt 0.002290 0.005333
vt 0.002290 0.001393
vt 0.065332 0.005333
vt 0.002290 0.009273
vt 0.065332 0.009273
vt 0.002290 0.013213
vt 0.065332 0.013213
vt 0.002290 0.017154
vt 0.065332 0.017154
vt 0.002290 0.021094
vt 0.065332 0.021094
vt 0.002290 0.025034
vt 0.065332 0.025034
vt 0.002290 0.028974
vt 0.065332 0.028974
vt 0.002290 0.032914
vt 0.065332 0.032914
vt 0.002290 0.036854
vt 0.065332 0.036854
vt 0.002290 0.040794
vt 0.065332 0.040794
vt 0.002290 0.044734
vt 0.065332 0.044734
vt 0.002290 0.048674
vt 0.065332 0.048674
vt 0.002290 0.052614
vt 0.065332 0.052614
vt 0.002290 0.056555
vt 0.065332 0.056555
vt 0.002290 0.060495
vt 0.065332 0.060495
vt 0.002290 0.064435
vt 0.065332 0.064435
vt 0.002290 0.068375
vt 0.065332 0.068375
vt 0.002290 0.072315
vt 0.065332 0.072315
vt 0.002290 0.076255
vt 0.065332 0.076255
vt 0.002290 0.080195
vt 0.065332 0.080195
vt 0.002290 0.084135
vt 0.065332 0.084135
vt 0.002290 0.088075
vt 0.065332 0.088075
vt 0.002290 0.092015
vt 0.065332 0.092015
vt 0.002290 0.095955
vt 0.065332 0.095955
vt 0.002290 0.099896
vt 0.065332 0.099896
vt 0.002290 0.103836
vt 0.065332 0.103836
vt 0.002290 0.107776
vt 0.065332 0.107776
vt 0.002290 0.111716
vt 0.065332 0.111716
vt 0.002290 0.115656
vt 0.065332 0.115656
vt 0.002290 0.119596
vt 0.088747 0.003449
vt 0.120140 0.020229
vt 0.103360 0.051621
vt 0.065332 0.119596
vt 0.002290 0.123536
vt 0.065332 0.123536
vt 0.002290 0.127476
vt 0.121102 0.079245
vt 0.093586 0.056664
vt 0.071005 0.084180
vt 0.098521 0.052584
vt 0.093586 0.052584
vt 0.088747 0.051621
vt 0.084188 0.049733
vt 0.080086 0.046992
vt 0.076597 0.043503
vt 0.073855 0.039400
vt 0.071967 0.034842
vt 0.071005 0.030002
vt 0.071005 0.025068
vt 0.071967 0.020229
vt 0.073855 0.015670
vt 0.076597 0.011567
vt 0.080086 0.008078
vt 0.084188 0.005337
vt 0.093586 0.002486
vt 0.107919 0.005337
vt 0.098521 0.002486
vt 0.103360 0.003449
vt 0.112021 0.008078
vt 0.115510 0.011567
vt 0.118252 0.015670
vt 0.121103 0.025068
vt 0.118252 0.039400
vt 0.121103 0.030002
vt 0.120140 0.034842
vt 0.115510 0.043503
vt 0.112021 0.046992
vt 0.107919 0.049733
vt 0.065332 0.127476
vt 0.071967 0.089019
vt 0.073855 0.093578
vt 0.076597 0.097680
vt 0.080086 0.101169
vt 0.084188 0.103911
vt 0.088747 0.105799
vt 0.093586 0.106761
vt 0.098521 0.106761
vt 0.103360 0.105799
vt 0.107919 0.103911
vt 0.112021 0.101169
vt 0.115510 0.097680
vt 0.118252 0.093578
vt 0.120140 0.089019
vt 0.121102 0.084180
vt 0.120140 0.074406
vt 0.118252 0.069847
vt 0.115510 0.065745
vt 0.112021 0.062256
vt 0.107919 0.059514
vt 0.103360 0.057626
vt 0.098521 0.056664
vt 0.088747 0.057626
vt 0.084188 0.059514
vt 0.080086 0.062256
vt 0.076597 0.065745
vt 0.073855 0.069847
vt 0.071967 0.074406
vt 0.071005 0.079245
vt 0.220116 0.440013
vt 0.001126 0.440013
vt 0.001126 0.659003
vt 0.439106 0.002033
vt 0.220116 0.002033
vt 0.220116 0.221023
vt 0.220116 0.659003
vt 0.220116 0.877993
vt 0.439106 0.877993
vt 0.439106 0.221023
vt 0.439106 0.440013
vt 0.658097 0.440013
vt 0.439106 0.659003
vt 0.658097 0.659003
vt 0.661432 0.750665
vt 0.537217 0.750665
vt 0.537217 0.874881
vt 0.785647 0.502235
vt 0.661432 0.502235
vt 0.661432 0.626450
vt 0.661432 0.874881
vt 0.661432 0.999096
vt 0.785647 0.999096
vt 0.785647 0.626450
vt 0.785647 0.750665
vt 0.909862 0.750665
vt 0.785647 0.874881
vt 0.909862 0.874881
vt 0.661432 0.250321
vt 0.537217 0.250321
vt 0.537217 0.374536
vt 0.785647 0.001890
vt 0.661432 0.001890
vt 0.661432 0.126106
vt 0.661432 0.374536
vt 0.661432 0.498751
vt 0.785647 0.498751
vt 0.785647 0.126106
vt 0.785647 0.250321
vt 0.909862 0.250321
vt 0.785647 0.374536
vt 0.909862 0.374536
s 0
usemtl マテリアル
f 2/1/1 1/3/1 3/2/1
f 4/4/2 3/2/2 5/5/2
f 6/6/3 5/5/3 7/7/3
f 8/8/4 7/7/4 9/9/4
f 10/10/5 9/9/5 11/11/5
f 12/12/6 11/11/6 13/13/6
f 14/14/7 13/13/7 15/15/7
f 16/16/8 15/15/8 17/17/8
f 18/18/9 17/17/9 19/19/9
f 20/20/10 19/19/10 21/21/10
f 22/22/11 21/21/11 23/23/11
f 24/24/12 23/23/12 25/25/12
f 26/26/13 25/25/13 27/27/13
f 28/28/14 27/27/14 29/29/14
f 30/30/15 29/29/15 31/31/15
f 32/32/16 31/31/16 33/33/16
f 34/34/17 33/33/17 35/35/17
f 36/36/18 35/35/18 37/37/18
f 38/38/19 37/37/19 39/39/19
f 40/40/20 39/39/20 41/41/20
f 42/42/21 41/41/21 43/43/21
f 44/44/22 43/43/22 45/45/22
f 46/46/23 45/45/23 47/47/23
f 48/48/24 47/47/24 49/49/24
f 50/50/25 49/49/25 51/51/25
f 52/52/26 51/51/26 53/53/26
f 54/54/27 53/53/27 55/55/27
f 56/56/28 55/55/28 57/57/28
f 58/58/29 57/57/29 59/59/29
f 60/60/30 59/59/30 61/61/30
f 38/62/31 6/64/31 22/63/31
f 62/65/32 61/61/32 63/66/32
f 64/67/33 63/66/33 1/68/33
f 31/69/34 63/71/34 47/70/34
f 2/1/1 3/2/1 4/4/1
f 4/4/2 5/5/2 6/6/2
f 6/6/3 7/7/3 8/8/3
f 8/8/4 9/9/4 10/10/4
f 10/10/5 11/11/5 12/12/5
f 12/12/6 13/13/6 14/14/6
f 14/14/7 15/15/7 16/16/7
f 16/16/8 17/17/8 18/18/8
f 18/18/9 19/19/9 20/20/9
f 20/20/10 21/21/10 22/22/10
f 22/22/11 23/23/11 24/24/11
f 24/24/12 25/25/12 26/26/12
f 26/26/13 27/27/13 28/28/13
f 28/28/14 29/29/14 30/30/14
f 30/30/15 31/31/15 32/32/15
f 32/32/16 33/33/16 34/34/16
f 34/34/17 35/35/17 36/36/17
f 36/36/18 37/37/18 38/38/18
f 38/38/19 39/39/19 40/40/19
f 40/40/20 41/41/20 42/42/20
f 42/42/21 43/43/21 44/44/21
f 44/44/22 45/45/22 46/46/22
f 46/46/23 47/47/23 48/48/23
f 48/48/24 49/49/24 50/50/24
f 50/50/25 51/51/25 52/52/25
f 52/52/26 53/53/26 54/54/26
f 54/54/27 55/55/27 56/56/27
f 56/56/28 57/57/28 58/58/28
f 58/58/29 59/59/29 60/60/29
f 60/60/30 61/61/30 62/65/30
f 6/64/31 2/73/31 4/72/31
f 2/73/31 6/64/31 64/74/31
f 64/74/31 6/64/31 62/75/31
f 62/75/31 58/77/31 60/76/31
f 58/77/31 54/79/31 56/78/31
f 54/79/31 50/81/31 52/80/31
f 50/81/31 54/79/31 48/82/31
f 48/82/31 54/79/31 46/83/31
f 46/83/31 42/85/31 44/84/31
f 42/85/31 38/62/31 40/86/31
f 38/62/31 30/88/31 36/87/31
f 36/87/31 30/88/31 34/89/31
f 34/89/31 30/88/31 32/90/31
f 30/88/31 26/92/31 28/91/31
f 26/92/31 22/63/31 24/93/31
f 22/63/31 14/95/31 20/94/31
f 20/94/31 14/95/31 18/96/31
f 18/96/31 14/95/31 16/97/31
f 14/95/31 10/99/31 12/98/31
f 10/99/31 6/64/31 8/100/31
f 62/75/31 6/64/31 58/77/31
f 58/77/31 6/64/31 54/79/31
f 46/83/31 54/79/31 42/85/31
f 42/85/31 54/79/31 38/62/31
f 30/88/31 38/62/31 26/92/31
f 26/92/31 38/62/31 22/63/31
f 14/95/31 22/63/31 10/99/31
f 10/99/31 22/63/31 6/64/31
f 6/64/31 38/62/31 54/79/31
f 62/65/32 63/66/32 64/67/32
f 64/67/33 1/68/33 2/101/33
f 63/71/34 3/103/34 1/102/34
f 3/103/34 7/105/34 5/104/34
f 7/105/34 11/107/34 9/106/34
f 11/107/34 15/109/34 13/108/34
f 15/109/34 19/111/34 17/110/34
f 19/111/34 23/113/34 21/112/34
f 23/113/34 27/115/34 25/114/34
f 27/115/34 31/69/34 29/116/34
f 31/69/34 35/118/34 33/117/34
f 35/118/34 39/120/34 37/119/34
f 39/120/34 43/122/34 41/121/34
f 43/122/34 47/70/34 45/123/34
f 47/70/34 51/125/34 49/124/34
f 51/125/34 55/127/34 53/126/34
f 55/127/34 59/129/34 57/128/34
f 59/129/34 63/71/34 61/130/34
f 63/71/34 15/109/34 3/103/34
f 3/103/34 15/109/34 7/105/34
f 7/105/34 15/109/34 11/107/34
f 15/109/34 31/69/34 19/111/34
f 19/111/34 31/69/34 23/113/34
f 23/113/34 31/69/34 27/115/34
f 31/69/34 47/70/34 35/118/34
f 35/118/34 47/70/34 39/120/34
f 39/120/34 47/70/34 43/122/34
f 47/70/34 63/71/34 51/125/34
f 51/125/34 63/71/34 55/127/34
f 55/127/34 63/71/34 59/129/34
f 63/71/34 31/69/34 15/109/34
f 69/131/35 65/133/35 66/132/35
f 67/134/36 66/136/36 65/135/36
f 68/137/37 67/139/37 65/138/37
f 69/131/35 68/137/35 65/133/35
f 71/140/38 69/131/38 66/136/38
f 71/140/38 70/141/38 69/131/38
f 70/141/39 68/137/39 69/131/39
f 71/142/40 67/144/40 72/143/40
f 67/134/36 71/140/36 66/136/36
f 71/142/40 72/143/40 70/141/40
f 70/141/39 72/143/39 68/137/39
f 68/137/37 72/143/37 67/139/37
f 77/145/35 73/147/35 74/146/35
f 75/148/36 74/150/36 73/149/36
f 76/151/37 75/153/37 73/152/37
f 77/145/35 76/151/35 73/147/35
f 79/154/38 77/145/38 74/150/38
f 79/154/38 78/155/38 77/145/38
f 78/155/39 76/151/39 77/145/39
f 79/156/40 75/158/40 80/157/40
f 75/148/36 79/154/36 74/150/36
f 79/156/40 80/157/40 78/155/40
f 78/155/39 80/157/39 76/151/39
f 76/151/37 80/157/37 75/153/37
f 85/159/35 81/161/35 82/160/35
f 83/162/36 82/164/36 81/163/36
f 84/165/37 83/167/37 81/166/37
f 85/159/35 84/165/35 81/161/35
f 87/168/38 85/159/38 82/164/38
f 87/168/38 86/169/38 85/159/38
f 86/169/39 84/165/39 85/159/39
f 87/170/40 83/172/40 88/171/40
f 83/162/36 87/168/36 82/164/36
f 87/170/40 88/171/40 86/169/40
f 86/169/39 88/171/39 84/165/39
f 84/165/37 88/171/37 83/167/37
