# Blender 4.4.1
# www.blender.org
mtllib Bullet.mtl
o 円柱
v 0.000000 0.927751 -0.446465
v 0.000000 0.927751 0.317170
v 0.016238 0.925950 -0.446465
v 0.016238 0.925950 0.317170
v 0.031852 0.920617 -0.446465
v 0.031852 0.920617 0.317170
v 0.046243 0.911957 -0.446465
v 0.046243 0.911957 0.317170
v 0.058856 0.900302 -0.446465
v 0.058856 0.900302 0.317170
v 0.069207 0.886100 -0.446465
v 0.069207 0.886100 0.317170
v 0.076899 0.869898 -0.446465
v 0.076899 0.869897 0.317170
v 0.081635 0.852317 -0.446465
v 0.081635 0.852317 0.317170
v 0.083234 0.834033 -0.446465
v 0.083234 0.834033 0.317170
v 0.081635 0.815750 -0.446465
v 0.081635 0.815750 0.317170
v 0.076899 0.798169 -0.446465
v 0.076899 0.798169 0.317170
v 0.069207 0.781967 -0.446465
v 0.069207 0.781967 0.317170
v 0.058856 0.767765 -0.446465
v 0.058856 0.767765 0.317170
v 0.046243 0.756110 -0.446465
v 0.046243 0.756110 0.317170
v 0.031852 0.747450 -0.446465
v 0.031852 0.747450 0.317170
v 0.016238 0.742117 -0.446465
v 0.016238 0.742117 0.317170
v 0.000000 0.740316 -0.446465
v 0.000000 0.740316 0.317170
v -0.016238 0.742117 -0.446465
v -0.016238 0.742117 0.317170
v -0.031852 0.747450 -0.446465
v -0.031852 0.747450 0.317170
v -0.046243 0.756110 -0.446465
v -0.046243 0.756110 0.317170
v -0.058856 0.767765 -0.446465
v -0.058856 0.767765 0.317170
v -0.069207 0.781967 -0.446465
v -0.069207 0.781967 0.317170
v -0.076899 0.798169 -0.446465
v -0.076899 0.798169 0.317170
v -0.081635 0.815750 -0.446465
v -0.081635 0.815750 0.317170
v -0.083234 0.834033 -0.446465
v -0.083234 0.834033 0.317170
v -0.081635 0.852317 -0.446465
v -0.081635 0.852317 0.317170
v -0.076899 0.869898 -0.446465
v -0.076899 0.869897 0.317170
v -0.069207 0.886100 -0.446465
v -0.069207 0.886100 0.317170
v -0.058856 0.900302 -0.446465
v -0.058856 0.900302 0.317170
v -0.046243 0.911957 -0.446465
v -0.046243 0.911957 0.317170
v -0.031852 0.920617 -0.446465
v -0.031852 0.920617 0.317170
v -0.016238 0.925950 -0.446465
v -0.016238 0.925950 0.317170
vn 0.1102 0.9939 -0.0000
vn 0.3232 0.9463 -0.0000
vn 0.5156 0.8568 -0.0000
vn 0.6787 0.7345 -0.0000
vn 0.8081 0.5890 -0.0000
vn 0.9034 0.4289 -0.0000
vn 0.9656 0.2601 -0.0000
vn 0.9962 0.0871 -0.0000
vn 0.9962 -0.0871 -0.0000
vn 0.9656 -0.2601 -0.0000
vn 0.9034 -0.4289 -0.0000
vn 0.8081 -0.5890 -0.0000
vn 0.6787 -0.7345 -0.0000
vn 0.5156 -0.8568 -0.0000
vn 0.3232 -0.9463 -0.0000
vn 0.1102 -0.9939 -0.0000
vn -0.1102 -0.9939 -0.0000
vn -0.3232 -0.9463 -0.0000
vn -0.5156 -0.8568 -0.0000
vn -0.6787 -0.7345 -0.0000
vn -0.8081 -0.5890 -0.0000
vn -0.9034 -0.4289 -0.0000
vn -0.9656 -0.2601 -0.0000
vn -0.9962 -0.0871 -0.0000
vn -0.9962 0.0871 -0.0000
vn -0.9656 0.2601 -0.0000
vn -0.9034 0.4289 -0.0000
vn -0.8081 0.5890 -0.0000
vn -0.6787 0.7345 -0.0000
vn -0.5156 0.8568 -0.0000
vn -0.0000 -0.0000 1.0000
vn -0.3232 0.9463 -0.0000
vn -0.1102 0.9939 -0.0000
vn -0.0000 -0.0000 -1.0000
vt 0.319039 0.000599
vt 0.000599 0.031812
vt 0.000599 0.000599
vt 0.319039 0.031812
vt 0.000599 0.063024
vt 0.319039 0.063024
vt 0.000599 0.094237
vt 0.319039 0.094237
vt 0.000599 0.125449
vt 0.319039 0.125449
vt 0.000599 0.156662
vt 0.319039 0.156662
vt 0.000599 0.187874
vt 0.319039 0.187874
vt 0.000599 0.219087
vt 0.319039 0.219087
vt 0.000599 0.250299
vt 0.319039 0.250299
vt 0.000599 0.281512
vt 0.319039 0.281512
vt 0.000599 0.312725
vt 0.319039 0.312725
vt 0.000599 0.343937
vt 0.319039 0.343937
vt 0.000599 0.375150
vt 0.319039 0.375150
vt 0.000599 0.406362
vt 0.319039 0.406362
vt 0.000599 0.437575
vt 0.319039 0.437575
vt 0.000599 0.468787
vt 0.319039 0.468787
vt 0.000599 0.500000
vt 0.319039 0.500000
vt 0.000599 0.531213
vt 0.319039 0.531213
vt 0.000599 0.562425
vt 0.319039 0.562425
vt 0.000599 0.593638
vt 0.319039 0.593638
vt 0.000599 0.624850
vt 0.319039 0.624850
vt 0.000599 0.656063
vt 0.319039 0.656063
vt 0.000599 0.687275
vt 0.319039 0.687275
vt 0.000599 0.718488
vt 0.319039 0.718488
vt 0.000599 0.749701
vt 0.319039 0.749701
vt 0.000599 0.780913
vt 0.319039 0.780913
vt 0.000599 0.812126
vt 0.319039 0.812126
vt 0.000599 0.843338
vt 0.319039 0.843338
vt 0.000599 0.874551
vt 0.319039 0.874551
vt 0.000599 0.905763
vt 0.319039 0.905763
vt 0.000599 0.936976
vt 0.326326 0.112833
vt 0.524909 0.006688
vt 0.631054 0.205271
vt 0.319039 0.936976
vt 0.000599 0.968189
vt 0.319039 0.968188
vt 0.000599 0.999401
vt 0.619109 0.552212
vt 0.403634 0.617576
vt 0.338270 0.402101
vt 0.619109 0.234108
vt 0.601768 0.260060
vt 0.579698 0.282131
vt 0.553746 0.299471
vt 0.524909 0.311416
vt 0.494296 0.317505
vt 0.463084 0.317505
vt 0.432471 0.311416
vt 0.403634 0.299471
vt 0.377682 0.282131
vt 0.355611 0.260060
vt 0.338270 0.234108
vt 0.326326 0.205271
vt 0.320237 0.174658
vt 0.320237 0.143446
vt 0.338270 0.083996
vt 0.403634 0.018633
vt 0.355611 0.058044
vt 0.377682 0.035973
vt 0.432471 0.006688
vt 0.463084 0.000599
vt 0.494296 0.000599
vt 0.553746 0.018633
vt 0.619109 0.083996
vt 0.579698 0.035973
vt 0.601768 0.058044
vt 0.631054 0.112833
vt 0.637143 0.143446
vt 0.637143 0.174658
vt 0.319039 0.999401
vt 0.355611 0.376148
vt 0.377682 0.354078
vt 0.403634 0.336737
vt 0.432471 0.324792
vt 0.463084 0.318703
vt 0.494296 0.318703
vt 0.524909 0.324792
vt 0.553746 0.336737
vt 0.579698 0.354078
vt 0.601768 0.376148
vt 0.619109 0.402101
vt 0.631054 0.430937
vt 0.637143 0.461550
vt 0.637143 0.492763
vt 0.631054 0.523375
vt 0.601768 0.578164
vt 0.579698 0.600235
vt 0.553746 0.617576
vt 0.524909 0.629520
vt 0.494296 0.635610
vt 0.463084 0.635610
vt 0.432471 0.629520
vt 0.377682 0.600235
vt 0.355611 0.578164
vt 0.338270 0.552212
vt 0.326326 0.523375
vt 0.320237 0.492763
vt 0.320237 0.461550
vt 0.326326 0.430937
s 0
usemtl マテリアル.001
f 2/1/1 3/2/1 1/3/1
f 4/4/2 5/5/2 3/2/2
f 6/6/3 7/7/3 5/5/3
f 8/8/4 9/9/4 7/7/4
f 10/10/5 11/11/5 9/9/5
f 12/12/6 13/13/6 11/11/6
f 14/14/7 15/15/7 13/13/7
f 16/16/8 17/17/8 15/15/8
f 18/18/9 19/19/9 17/17/9
f 20/20/10 21/21/10 19/19/10
f 22/22/11 23/23/11 21/21/11
f 24/24/12 25/25/12 23/23/12
f 26/26/13 27/27/13 25/25/13
f 28/28/14 29/29/14 27/27/14
f 30/30/15 31/31/15 29/29/15
f 32/32/16 33/33/16 31/31/16
f 34/34/17 35/35/17 33/33/17
f 36/36/18 37/37/18 35/35/18
f 38/38/19 39/39/19 37/37/19
f 40/40/20 41/41/20 39/39/20
f 42/42/21 43/43/21 41/41/21
f 44/44/22 45/45/22 43/43/22
f 46/46/23 47/47/23 45/45/23
f 48/48/24 49/49/24 47/47/24
f 50/50/25 51/51/25 49/49/25
f 52/52/26 53/53/26 51/51/26
f 54/54/27 55/55/27 53/53/27
f 56/56/28 57/57/28 55/55/28
f 58/58/29 59/59/29 57/57/29
f 60/60/30 61/61/30 59/59/30
f 38/62/31 22/63/31 6/64/31
f 62/65/32 63/66/32 61/61/32
f 64/67/33 1/68/33 63/66/33
f 31/69/34 47/70/34 63/71/34
f 2/1/1 4/4/1 3/2/1
f 4/4/2 6/6/2 5/5/2
f 6/6/3 8/8/3 7/7/3
f 8/8/4 10/10/4 9/9/4
f 10/10/5 12/12/5 11/11/5
f 12/12/6 14/14/6 13/13/6
f 14/14/7 16/16/7 15/15/7
f 16/16/8 18/18/8 17/17/8
f 18/18/9 20/20/9 19/19/9
f 20/20/10 22/22/10 21/21/10
f 22/22/11 24/24/11 23/23/11
f 24/24/12 26/26/12 25/25/12
f 26/26/13 28/28/13 27/27/13
f 28/28/14 30/30/14 29/29/14
f 30/30/15 32/32/15 31/31/15
f 32/32/16 34/34/16 33/33/16
f 34/34/17 36/36/17 35/35/17
f 36/36/18 38/38/18 37/37/18
f 38/38/19 40/40/19 39/39/19
f 40/40/20 42/42/20 41/41/20
f 42/42/21 44/44/21 43/43/21
f 44/44/22 46/46/22 45/45/22
f 46/46/23 48/48/23 47/47/23
f 48/48/24 50/50/24 49/49/24
f 50/50/25 52/52/25 51/51/25
f 52/52/26 54/54/26 53/53/26
f 54/54/27 56/56/27 55/55/27
f 56/56/28 58/58/28 57/57/28
f 58/58/29 60/60/29 59/59/29
f 60/60/30 62/65/30 61/61/30
f 6/64/31 4/72/31 2/73/31
f 2/73/31 64/74/31 6/64/31
f 64/74/31 62/75/31 6/64/31
f 62/75/31 60/76/31 58/77/31
f 58/77/31 56/78/31 54/79/31
f 54/79/31 52/80/31 50/81/31
f 50/81/31 48/82/31 54/79/31
f 48/82/31 46/83/31 54/79/31
f 46/83/31 44/84/31 42/85/31
f 42/85/31 40/86/31 38/62/31
f 38/62/31 36/87/31 30/88/31
f 36/87/31 34/89/31 30/88/31
f 34/89/31 32/90/31 30/88/31
f 30/88/31 28/91/31 26/92/31
f 26/92/31 24/93/31 22/63/31
f 22/63/31 20/94/31 14/95/31
f 20/94/31 18/96/31 14/95/31
f 18/96/31 16/97/31 14/95/31
f 14/95/31 12/98/31 10/99/31
f 10/99/31 8/100/31 6/64/31
f 62/75/31 58/77/31 6/64/31
f 58/77/31 54/79/31 6/64/31
f 46/83/31 42/85/31 54/79/31
f 42/85/31 38/62/31 54/79/31
f 30/88/31 26/92/31 38/62/31
f 26/92/31 22/63/31 38/62/31
f 14/95/31 10/99/31 22/63/31
f 10/99/31 6/64/31 22/63/31
f 6/64/31 54/79/31 38/62/31
f 62/65/32 64/67/32 63/66/32
f 64/67/33 2/101/33 1/68/33
f 63/71/34 1/102/34 3/103/34
f 3/103/34 5/104/34 7/105/34
f 7/105/34 9/106/34 11/107/34
f 11/107/34 13/108/34 15/109/34
f 15/109/34 17/110/34 19/111/34
f 19/111/34 21/112/34 23/113/34
f 23/113/34 25/114/34 27/115/34
f 27/115/34 29/116/34 31/69/34
f 31/69/34 33/117/34 35/118/34
f 35/118/34 37/119/34 39/120/34
f 39/120/34 41/121/34 43/122/34
f 43/122/34 45/123/34 47/70/34
f 47/70/34 49/124/34 51/125/34
f 51/125/34 53/126/34 55/127/34
f 55/127/34 57/128/34 59/129/34
f 59/129/34 61/130/34 63/71/34
f 63/71/34 3/103/34 15/109/34
f 3/103/34 7/105/34 15/109/34
f 7/105/34 11/107/34 15/109/34
f 15/109/34 19/111/34 31/69/34
f 19/111/34 23/113/34 31/69/34
f 23/113/34 27/115/34 31/69/34
f 31/69/34 35/118/34 47/70/34
f 35/118/34 39/120/34 47/70/34
f 39/120/34 43/122/34 47/70/34
f 47/70/34 51/125/34 63/71/34
f 51/125/34 55/127/34 63/71/34
f 55/127/34 59/129/34 63/71/34
f 63/71/34 15/109/34 31/69/34
