# Blender 4.4.1
# www.blender.org
mtllib Raifl.mtl
o 立方体.001
v -0.130233 0.136725 1.104158
v -0.130233 0.712557 0.867258
v -0.130233 0.136725 0.676560
v -0.130233 0.712557 0.439661
v 0.130233 0.136725 1.104158
v 0.130233 0.712557 0.867258
v 0.130233 0.136725 0.676560
v 0.130233 0.712557 0.439661
v -0.130233 0.394959 0.867258
v -0.130233 0.394959 0.439661
v 0.130233 0.394959 0.439661
v 0.130233 0.394959 0.867258
v -0.228919 0.638171 1.326055
v -0.228919 1.014232 1.326055
v -0.228919 0.638171 -1.481106
v -0.228919 1.014232 -1.481106
v 0.228919 0.638171 1.326055
v 0.228919 1.014232 1.326055
v 0.228919 0.638171 -1.481106
v 0.228919 1.014232 -1.481106
v -0.203230 0.102770 -0.734692
v -0.203230 0.739131 -0.734692
v -0.203230 0.102770 -1.120844
v -0.203230 0.739131 -1.120844
v 0.203230 0.102770 -0.734692
v 0.203230 0.739131 -0.734692
v 0.203230 0.102770 -1.120844
v 0.203230 0.739131 -1.120844
v 0.009476 0.954369 0.871398
v 0.009476 0.958801 1.768567
v 0.033898 0.952104 0.871415
v 0.033898 0.956536 1.768584
v 0.057381 0.945396 0.871466
v 0.057381 0.949828 1.768635
v 0.079023 0.934503 0.871549
v 0.079023 0.938934 1.768718
v 0.097992 0.919843 0.871661
v 0.097992 0.924275 1.768830
v 0.113560 0.901980 0.871797
v 0.113560 0.906412 1.768966
v 0.125128 0.881600 0.871952
v 0.125128 0.886032 1.769121
v 0.132252 0.859487 0.872120
v 0.132252 0.863919 1.769289
v 0.134657 0.836490 0.872295
v 0.134657 0.840922 1.769464
v 0.132252 0.813493 0.872470
v 0.132252 0.817924 1.769639
v 0.125128 0.791380 0.872638
v 0.125128 0.795811 1.769807
v 0.113560 0.771000 0.872793
v 0.113560 0.775431 1.769962
v 0.097992 0.753137 0.872929
v 0.097992 0.757568 1.770098
v 0.079023 0.738477 0.873041
v 0.079023 0.742908 1.770210
v 0.057381 0.727584 0.873124
v 0.057381 0.732015 1.770293
v 0.033898 0.720876 0.873175
v 0.033898 0.725307 1.770344
v 0.009476 0.718611 0.873192
v 0.009476 0.723042 1.770361
v -0.014945 0.720876 0.873175
v -0.014945 0.725307 1.770344
v -0.038429 0.727584 0.873124
v -0.038429 0.732015 1.770293
v -0.060071 0.738477 0.873041
v -0.060071 0.742908 1.770210
v -0.079040 0.753137 0.872929
v -0.079040 0.757568 1.770098
v -0.094608 0.771000 0.872793
v -0.094608 0.775431 1.769962
v -0.106176 0.791380 0.872638
v -0.106176 0.795811 1.769807
v -0.113299 0.813493 0.872470
v -0.113299 0.817924 1.769639
v -0.115705 0.836490 0.872295
v -0.115705 0.840922 1.769464
v -0.113299 0.859487 0.872120
v -0.113299 0.863919 1.769289
v -0.106176 0.881600 0.871952
v -0.106176 0.886032 1.769121
v -0.094608 0.901980 0.871797
v -0.094608 0.906412 1.768966
v -0.079040 0.919843 0.871661
v -0.079040 0.924275 1.768830
v -0.060071 0.934503 0.871549
v -0.060071 0.938934 1.768718
v -0.038429 0.945396 0.871466
v -0.038429 0.949828 1.768635
v -0.014945 0.952104 0.871415
v -0.014945 0.956536 1.768584
vn -1.0000 -0.0000 -0.0000
vn -0.0000 -0.0000 -1.0000
vn 1.0000 -0.0000 -0.0000
vn -0.0000 -0.0000 1.0000
vn -0.0000 -1.0000 -0.0000
vn -0.0000 1.0000 -0.0000
vn -0.0000 0.6760 0.7369
vn -0.0000 -0.6760 -0.7369
vn 0.0924 0.9957 -0.0049
vn 0.2747 0.9615 -0.0047
vn 0.4496 0.8932 -0.0044
vn 0.6115 0.7912 -0.0039
vn 0.7539 0.6570 -0.0032
vn 0.8697 0.4936 -0.0024
vn 0.9518 0.3066 -0.0015
vn 0.9946 0.1040 -0.0005
vn 0.9946 -0.1040 0.0005
vn 0.9518 -0.3066 0.0015
vn 0.8697 -0.4936 0.0024
vn 0.7539 -0.6570 0.0032
vn 0.6115 -0.7912 0.0039
vn 0.4496 -0.8932 0.0044
vn 0.2747 -0.9615 0.0047
vn 0.0924 -0.9957 0.0049
vn -0.0924 -0.9957 0.0049
vn -0.2747 -0.9615 0.0047
vn -0.4496 -0.8932 0.0044
vn -0.6115 -0.7912 0.0039
vn -0.7539 -0.6570 0.0032
vn -0.8697 -0.4936 0.0024
vn -0.9518 -0.3066 0.0015
vn -0.9946 -0.1040 0.0005
vn -0.9946 0.1040 -0.0005
vn -0.9518 0.3066 -0.0015
vn -0.8697 0.4936 -0.0024
vn -0.7539 0.6570 -0.0032
vn -0.6115 0.7912 -0.0039
vn -0.4496 0.8932 -0.0044
vn -0.0000 0.0076 1.0000
vn -0.2747 0.9615 -0.0047
vn -0.0923 0.9957 -0.0049
vn -0.0000 -0.0076 -1.0000
vn -0.0000 0.0077 1.0000
vn -0.0924 0.9957 -0.0049
vt 0.625000 0.000000
vt 0.500000 0.250000
vt 0.500000 0.000000
vt 0.625000 0.250000
vt 0.500000 0.500000
vt 0.625000 0.500000
vt 0.500000 0.750000
vt 0.625000 0.750000
vt 0.500000 1.000000
vt 0.375000 0.500000
vt 0.125000 0.750000
vt 0.125000 0.500000
vt 0.875000 0.500000
vt 0.375000 1.000000
vt 0.375000 0.750000
vt 0.375000 0.250000
vt 0.375000 0.000000
vt 1.000000 0.500000
vt 0.968750 1.000000
vt 0.968750 0.500000
vt 0.937500 1.000000
vt 0.937500 0.500000
vt 0.906250 1.000000
vt 0.906250 0.500000
vt 0.875000 1.000000
vt 0.843750 1.000000
vt 0.843750 0.500000
vt 0.812500 1.000000
vt 0.812500 0.500000
vt 0.781250 1.000000
vt 0.781250 0.500000
vt 0.750000 1.000000
vt 0.750000 0.500000
vt 0.718750 1.000000
vt 0.718750 0.500000
vt 0.687500 1.000000
vt 0.687500 0.500000
vt 0.656250 1.000000
vt 0.656250 0.500000
vt 0.625000 1.000000
vt 0.593750 1.000000
vt 0.593750 0.500000
vt 0.562500 1.000000
vt 0.562500 0.500000
vt 0.531250 1.000000
vt 0.531250 0.500000
vt 0.468750 0.500000
vt 0.468750 1.000000
vt 0.437500 0.500000
vt 0.437500 1.000000
vt 0.406250 0.500000
vt 0.406250 1.000000
vt 0.343750 0.500000
vt 0.343750 1.000000
vt 0.312500 0.500000
vt 0.312500 1.000000
vt 0.281250 0.500000
vt 0.281250 1.000000
vt 0.250000 0.500000
vt 0.250000 1.000000
vt 0.218750 0.500000
vt 0.218750 1.000000
vt 0.187500 0.500000
vt 0.187500 1.000000
vt 0.156250 0.500000
vt 0.156250 1.000000
vt 0.125000 1.000000
vt 0.093750 0.500000
vt 0.093750 1.000000
vt 0.062500 0.500000
vt 0.419706 0.419706
vt 0.383337 0.449553
vt 0.080294 0.419706
vt 0.062500 1.000000
vt 0.031250 0.500000
vt 0.031250 1.000000
vt 0.000000 0.500000
vt 0.616663 0.449553
vt 0.658156 0.471731
vt 0.883337 0.449553
vt 0.875000 0.750000
vt 1.000000 1.000000
vt 0.341844 0.471731
vt 0.296822 0.485388
vt 0.158156 0.471731
vt 0.250000 0.490000
vt 0.203178 0.485388
vt 0.116663 0.449553
vt 0.050447 0.383337
vt 0.028269 0.341844
vt 0.449553 0.383337
vt 0.014612 0.296822
vt 0.485388 0.296822
vt 0.010000 0.250000
vt 0.490000 0.250000
vt 0.014612 0.203178
vt 0.485388 0.203178
vt 0.028269 0.158156
vt 0.471731 0.158156
vt 0.050447 0.116663
vt 0.080294 0.080294
vt 0.449553 0.116663
vt 0.116663 0.050447
vt 0.419706 0.080294
vt 0.158156 0.028269
vt 0.383337 0.050447
vt 0.203178 0.014612
vt 0.296822 0.014612
vt 0.250000 0.010000
vt 0.341844 0.028269
vt 0.471731 0.341844
vt 0.000000 1.000000
vt 0.703178 0.485388
vt 0.750000 0.490000
vt 0.796822 0.485388
vt 0.841844 0.471731
vt 0.919706 0.419706
vt 0.580294 0.419706
vt 0.949553 0.383337
vt 0.550447 0.383337
vt 0.971731 0.341844
vt 0.985388 0.296822
vt 0.528269 0.341844
vt 0.990000 0.250000
vt 0.510000 0.250000
vt 0.985388 0.203178
vt 0.514612 0.203178
vt 0.971731 0.158156
vt 0.949553 0.116663
vt 0.528269 0.158156
vt 0.919706 0.080294
vt 0.580294 0.080294
vt 0.883337 0.050447
vt 0.616663 0.050447
vt 0.841844 0.028269
vt 0.796822 0.014612
vt 0.658156 0.028269
vt 0.750000 0.010000
vt 0.703178 0.014612
vt 0.550447 0.116663
vt 0.514612 0.296822
s 0
usemtl 
f 2/1/1 10/2/1 9/3/1
f 4/4/2 11/5/2 10/2/2
f 8/6/3 12/7/3 11/5/3
f 6/8/4 9/9/4 12/7/4
f 7/10/5 1/11/5 3/12/5
f 4/13/6 6/8/6 8/6/6
f 12/7/7 1/14/7 5/15/7
f 7/10/3 12/7/3 5/15/3
f 10/2/8 7/10/8 3/16/8
f 9/3/1 3/16/1 1/17/1
f 14/1/1 15/16/1 13/17/1
f 16/4/2 19/10/2 15/16/2
f 20/6/3 17/15/3 19/10/3
f 18/8/4 13/14/4 17/15/4
f 19/10/5 13/11/5 15/12/5
f 16/13/6 18/8/6 20/6/6
f 22/1/1 23/16/1 21/17/1
f 24/4/2 27/10/2 23/16/2
f 28/6/3 25/15/3 27/10/3
f 26/8/4 21/14/4 25/15/4
f 27/10/5 21/11/5 23/12/5
f 24/13/6 26/8/6 28/6/6
f 2/1/1 4/4/1 10/2/1
f 4/4/2 8/6/2 11/5/2
f 8/6/3 6/8/3 12/7/3
f 6/8/4 2/40/4 9/9/4
f 7/10/5 5/15/5 1/11/5
f 4/13/6 2/81/6 6/8/6
f 12/7/7 9/9/7 1/14/7
f 7/10/3 11/5/3 12/7/3
f 10/2/8 11/5/8 7/10/8
f 9/3/1 10/2/1 3/16/1
f 14/1/1 16/4/1 15/16/1
f 16/4/2 20/6/2 19/10/2
f 20/6/3 18/8/3 17/15/3
f 18/8/4 14/40/4 13/14/4
f 19/10/5 17/15/5 13/11/5
f 16/13/6 14/81/6 18/8/6
f 22/1/1 24/4/1 23/16/1
f 24/4/2 28/6/2 27/10/2
f 28/6/3 26/8/3 25/15/3
f 26/8/4 22/40/4 21/14/4
f 27/10/5 25/15/5 21/11/5
f 24/13/6 22/81/6 26/8/6
usemtl マテリアル
f 29/18/9 32/19/9 31/20/9
f 31/20/10 34/21/10 33/22/10
f 33/22/11 36/23/11 35/24/11
f 35/24/12 38/25/12 37/13/12
f 37/13/13 40/26/13 39/27/13
f 39/27/14 42/28/14 41/29/14
f 41/29/15 44/30/15 43/31/15
f 43/31/16 46/32/16 45/33/16
f 45/33/17 48/34/17 47/35/17
f 47/35/18 50/36/18 49/37/18
f 49/37/19 52/38/19 51/39/19
f 51/39/20 54/40/20 53/6/20
f 53/6/21 56/41/21 55/42/21
f 55/42/22 58/43/22 57/44/22
f 57/44/23 60/45/23 59/46/23
f 59/46/24 62/9/24 61/5/24
f 62/9/25 63/47/25 61/5/25
f 64/48/26 65/49/26 63/47/26
f 66/50/27 67/51/27 65/49/27
f 68/52/28 69/10/28 67/51/28
f 70/14/29 71/53/29 69/10/29
f 72/54/30 73/55/30 71/53/30
f 74/56/31 75/57/31 73/55/31
f 76/58/32 77/59/32 75/57/32
f 78/60/33 79/61/33 77/59/33
f 80/62/34 81/63/34 79/61/34
f 82/64/35 83/65/35 81/63/35
f 84/66/36 85/12/36 83/65/36
f 86/67/37 87/68/37 85/12/37
f 88/69/38 89/70/38 87/68/38
f 38/71/39 36/72/39 86/73/39
f 90/74/40 91/75/40 89/70/40
f 92/76/41 29/77/41 91/75/41
f 87/78/42 89/79/42 35/80/42
f 29/18/9 30/82/9 32/19/9
f 31/20/10 32/19/10 34/21/10
f 33/22/11 34/21/11 36/23/11
f 35/24/12 36/23/12 38/25/12
f 37/13/13 38/25/13 40/26/13
f 39/27/14 40/26/14 42/28/14
f 41/29/15 42/28/15 44/30/15
f 43/31/16 44/30/16 46/32/16
f 45/33/17 46/32/17 48/34/17
f 47/35/18 48/34/18 50/36/18
f 49/37/19 50/36/19 52/38/19
f 51/39/20 52/38/20 54/40/20
f 53/6/21 54/40/21 56/41/21
f 55/42/22 56/41/22 58/43/22
f 57/44/23 58/43/23 60/45/23
f 59/46/24 60/45/24 62/9/24
f 62/9/25 64/48/25 63/47/25
f 64/48/26 66/50/26 65/49/26
f 66/50/27 68/52/27 67/51/27
f 68/52/28 70/14/28 69/10/28
f 70/14/29 72/54/29 71/53/29
f 72/54/30 74/56/30 73/55/30
f 74/56/31 76/58/31 75/57/31
f 76/58/32 78/60/32 77/59/32
f 78/60/33 80/62/33 79/61/33
f 80/62/34 82/64/34 81/63/34
f 82/64/35 84/66/35 83/65/35
f 84/66/36 86/67/36 85/12/36
f 86/67/37 88/69/37 87/68/37
f 88/69/38 90/74/38 89/70/38
f 34/83/39 32/84/39 90/85/39
f 32/84/39 30/86/39 92/87/39
f 90/85/39 32/84/39 92/87/39
f 90/85/39 88/88/39 34/83/39
f 88/88/39 86/73/39 36/72/39
f 34/83/39 88/88/39 36/72/39
f 86/73/39 84/89/39 38/71/39
f 84/89/39 82/90/39 40/91/39
f 38/71/39 84/89/39 40/91/39
f 82/90/39 80/92/39 44/93/39
f 80/92/39 78/94/39 46/95/39
f 78/94/39 76/96/39 48/97/39
f 76/96/39 74/98/39 50/99/39
f 74/98/39 72/100/39 50/99/39
f 72/100/39 70/101/39 52/102/39
f 50/99/39 72/100/39 52/102/39
f 70/101/39 68/103/39 54/104/39
f 68/103/39 66/105/39 56/106/39
f 54/104/39 68/103/39 56/106/39
f 66/105/39 64/107/39 60/108/39
f 64/107/43 62/109/43 60/108/43
f 60/108/39 58/110/39 66/105/39
f 58/110/39 56/106/39 66/105/39
f 54/104/39 52/102/39 70/101/39
f 50/99/39 48/97/39 76/96/39
f 48/97/39 46/95/39 78/94/39
f 46/95/39 44/93/39 80/92/39
f 44/93/39 42/111/39 82/90/39
f 42/111/39 40/91/39 82/90/39
f 90/74/40 92/76/40 91/75/40
f 92/76/44 30/112/44 29/77/44
f 91/113/42 29/114/42 31/115/42
f 31/115/42 33/116/42 91/113/42
f 33/116/42 35/80/42 89/79/42
f 91/113/42 33/116/42 89/79/42
f 35/80/42 37/117/42 85/118/42
f 37/117/42 39/119/42 83/120/42
f 39/119/42 41/121/42 83/120/42
f 41/121/42 43/122/42 81/123/42
f 83/120/42 41/121/42 81/123/42
f 43/122/42 45/124/42 77/125/42
f 45/124/42 47/126/42 75/127/42
f 47/126/42 49/128/42 75/127/42
f 49/128/42 51/129/42 73/130/42
f 75/127/42 49/128/42 73/130/42
f 51/129/42 53/131/42 69/132/42
f 53/131/42 55/133/42 67/134/42
f 55/133/42 57/135/42 67/134/42
f 57/135/42 59/136/42 65/137/42
f 67/134/42 57/135/42 65/137/42
f 59/136/42 61/138/42 63/139/42
f 63/139/42 65/137/42 59/136/42
f 67/134/42 69/132/42 53/131/42
f 69/132/42 71/140/42 51/129/42
f 71/140/42 73/130/42 51/129/42
f 75/127/42 77/125/42 45/124/42
f 77/125/42 79/141/42 43/122/42
f 79/141/42 81/123/42 43/122/42
f 83/120/42 85/118/42 37/117/42
f 85/118/42 87/78/42 35/80/42
